<svg xmlns="http://www.w3.org/2000/svg" viewBox="0 0 64 64" role="img" aria-label="Colombiano Promedio">
  <rect x="4" y="4" width="56" height="56" rx="18" fill="#090d14"></rect>
  <rect x="4.5" y="4.5" width="55" height="55" rx="17.5" fill="#101722" stroke="#6e7b94" stroke-opacity="0.44"></rect>
  <rect x="8.5" y="8.5" width="47" height="47" rx="14.5" fill="#ffffff" fill-opacity="0.08" stroke="#ffffff" stroke-opacity="0.1"></rect>

  <circle
    cx="32"
    cy="32"
    r="18.4"
    fill="none"
    stroke="#f8c400"
    stroke-width="6.2"
    stroke-linecap="round"
    stroke-dasharray="46 70"
    transform="rotate(-36 32 32)"
  ></circle>
  <circle
    cx="32"
    cy="32"
    r="18.4"
    fill="none"
    stroke="#1548a7"
    stroke-width="6.2"
    stroke-linecap="round"
    stroke-dasharray="30 86"
    transform="rotate(84 32 32)"
  ></circle>
  <circle
    cx="32"
    cy="32"
    r="18.4"
    fill="none"
    stroke="#c93535"
    stroke-width="6.2"
    stroke-linecap="round"
    stroke-dasharray="26 90"
    transform="rotate(208 32 32)"
  ></circle>

  <circle cx="32" cy="32" r="13.6" fill="#0b1119" stroke="#ffffff" stroke-opacity="0.06"></circle>

  <path
    d="M23.5 19.2 L27.9 24.3 L31.5 22.7 L32 18.7 L32.5 22.7 L36.1 24.3 L40.5 19.2 L39 28.9 L44.1 33.2 L38.6 37.6 L36.8 45 L27.2 45 L25.4 37.6 L19.9 33.2 L25 28.9 Z"
    fill="#fff6d9"
    stroke="#d7e3ff"
    stroke-width="0.8"
    stroke-linejoin="round"
  ></path>
  <path d="M24.6 31.2 L29.8 29.4 L28.1 33.5 L24 33.8 Z" fill="#0b1119"></path>
  <path d="M39.4 31.2 L34.2 29.4 L35.9 33.5 L40 33.8 Z" fill="#0b1119"></path>
  <path d="M30 36.7 L32 35.2 L34 36.7 L32 39 Z" fill="#f8c400" fill-opacity="0.88"></path>
</svg>
